# Blender 4.3.2
# www.blender.org
mtllib board.mtl
o Board
v -1.000000 2.000000 -1.000000
v -1.000000 0.000000 -1.000000
v -1.000000 2.000000 1.000000
v -1.000000 0.000000 1.000000
v -1.000000 0.000000 3.000000
v -1.000000 2.000000 3.000000
v -1.000000 0.000000 -3.000000
v -1.000000 2.000000 -3.000000
v -1.000000 4.000000 1.000000
v -1.000000 4.000000 -1.000000
v -1.000000 4.000000 3.000000
v -1.000000 4.000000 -3.000000
v -1.000000 0.000000 -2.000000
v -1.000000 2.000000 -2.000000
v -1.000000 4.000000 -2.000000
v -1.000000 0.000000 2.000000
v -1.000000 2.000000 2.000000
v -1.000000 4.000000 2.000000
v -1.000000 1.000000 1.000000
v -1.000000 1.000000 -1.000000
v -1.000000 1.000000 3.000000
v -1.000000 1.000000 -3.000000
v -1.000000 1.000000 -2.000000
v -1.000000 1.000000 2.000000
v -1.000000 3.000000 -3.000000
v -1.000000 3.000000 1.000000
v -1.000000 3.000000 -1.000000
v -1.000000 3.000000 3.000000
v -1.000000 3.000000 -2.000000
v -1.000000 3.000000 2.000000
v 0.000000 0.000000 -1.000000
v 0.000000 0.000000 1.000000
v 0.000000 2.000000 3.000000
v 0.000000 0.000000 3.000000
v 0.000000 0.000000 -3.000000
v 0.000000 2.000000 -3.000000
v 0.000000 4.000000 1.000000
v 0.000000 4.000000 -1.000000
v 0.000000 4.000000 3.000000
v 0.000000 4.000000 -3.000000
v 0.000000 4.000000 -2.000000
v 0.000000 0.000000 -2.000000
v 0.000000 4.000000 2.000000
v 0.000000 0.000000 2.000000
v 0.000000 1.000000 -3.000000
v 0.000000 1.000000 3.000000
v 0.000000 3.000000 3.000000
v 0.000000 3.000000 -3.000000
v 0.500000 0.000000 1.000000
v 0.500000 0.000000 3.000000
v 0.500000 2.000000 -3.000000
v 0.500000 4.000000 -1.000000
v 0.500000 4.000000 -3.000000
v 0.500000 0.000000 -2.000000
v 0.500000 4.000000 2.000000
v 0.500000 1.000000 -3.000000
v 0.500000 3.000000 -3.000000
v 0.500000 0.000000 -1.000000
v 0.500000 2.000000 3.000000
v 0.500000 0.000000 -3.000000
v 0.500000 4.000000 1.000000
v 0.500000 4.000000 3.000000
v 0.500000 4.000000 -2.000000
v 0.500000 0.000000 2.000000
v 0.500000 1.000000 3.000000
v 0.500000 3.000000 3.000000
v -0.500000 0.000000 -1.000000
v -0.500000 2.000000 3.000000
v -0.500000 0.000000 -3.000000
v -0.500000 4.000000 1.000000
v -0.500000 4.000000 3.000000
v -0.500000 4.000000 -2.000000
v -0.500000 0.000000 2.000000
v -0.500000 1.000000 3.000000
v -0.500000 3.000000 3.000000
v -0.500000 0.000000 1.000000
v -0.500000 0.000000 3.000000
v -0.500000 2.000000 -3.000000
v -0.500000 4.000000 -1.000000
v -0.500000 4.000000 -3.000000
v -0.500000 0.000000 -2.000000
v -0.500000 4.000000 2.000000
v -0.500000 1.000000 -3.000000
v -0.500000 3.000000 -3.000000
v 0.500000 -2.000000 -1.000000
v 0.000000 -2.000000 -1.000000
v -0.500000 -2.000000 1.000000
v 0.000000 -2.000000 1.000000
v -0.500000 -2.000000 -2.000000
v 0.000000 -2.000000 -2.000000
v 0.500000 -2.000000 2.000000
v 0.000000 -2.000000 2.000000
v 0.500000 -2.000000 1.000000
v 0.500000 -2.000000 -2.000000
v -0.500000 -2.000000 -1.000000
v -0.500000 -2.000000 2.000000
v 0.500000 -1.000000 2.000000
v 0.000000 -1.000000 2.000000
v -0.500000 -1.000000 2.000000
v 0.500000 -1.000000 1.000000
v -0.500000 -1.000000 1.000000
v 0.000000 -1.000000 1.000000
v 0.000000 -1.500000 2.000000
v -0.500000 -1.500000 2.000000
v -0.500000 -1.500000 1.000000
v 0.000000 -1.500000 1.000000
v 0.500000 -1.500000 2.000000
v 0.500000 -1.500000 1.000000
v -0.500000 -1.000000 -2.000000
v -0.500000 -1.000000 -1.000000
v 0.000000 -1.000000 -1.000000
v 0.500000 -1.000000 -1.000000
v 0.500000 -1.000000 -2.000000
v 0.000000 -1.000000 -2.000000
v -0.500000 -1.500000 -2.000000
v 0.000000 -1.500000 -1.000000
v 0.500000 -1.500000 -2.000000
v -0.500000 -1.500000 -1.000000
v 0.500000 -1.500000 -1.000000
v 0.000000 -1.500000 -2.000000
v 0.500000 -2.000000 -1.000000
v 0.500000 -2.000000 -2.000000
v 0.500000 -2.000000 1.000000
v 0.500000 -2.000000 2.000000
v -0.500000 -2.000000 1.000000
v -0.500000 -2.000000 2.000000
v -0.500000 -2.000000 -1.000000
v -0.500000 -2.000000 -2.000000
v -0.500000 -1.500000 2.000000
v -0.500000 -1.500000 -2.000000
v 0.500000 -1.500000 -2.000000
v -0.500000 -1.500000 1.000000
v 0.500000 -1.500000 2.000000
v 0.500000 -1.500000 1.000000
v -0.500000 -1.500000 -1.000000
v 0.500000 -1.500000 -1.000000
v 1.500000 -2.000000 -1.000000
v 1.500000 -2.000000 -2.000000
v 1.500000 -2.000000 1.000000
v 1.500000 -2.000000 2.000000
v 1.500000 -1.500000 -2.000000
v 1.500000 -1.500000 2.000000
v 1.500000 -1.500000 1.000000
v 1.500000 -1.500000 -1.000000
v -1.500000 -2.000000 1.000000
v -1.500000 -2.000000 2.000000
v -1.500000 -2.000000 -1.000000
v -1.500000 -2.000000 -2.000000
v -1.500000 -1.500000 2.000000
v -1.500000 -1.500000 -2.000000
v -1.500000 -1.500000 1.000000
v -1.500000 -1.500000 -1.000000
v 0.514323 0.000000 -1.000000
v 1.000000 0.485677 -1.000000
v 1.000000 0.485677 1.000000
v 0.514323 0.000000 1.000000
v 0.514323 2.000000 3.000000
v 1.000000 2.000000 2.514323
v 1.000000 0.485677 2.514323
v 0.514323 0.000000 3.000000
v 1.000000 0.485677 -2.514323
v 0.514323 0.000000 -3.000000
v 1.000000 2.000000 -2.514323
v 0.514323 2.000000 -3.000000
v 0.514323 4.000000 1.000000
v 1.000000 3.514323 1.000000
v 1.000000 3.514323 -1.000000
v 0.514323 4.000000 -1.000000
v 0.514323 4.000000 3.000000
v 1.000000 3.514323 2.514323
v 1.000000 3.514323 -2.514323
v 0.514323 4.000000 -3.000000
v 0.514323 0.000000 -2.000000
v 1.000000 0.485677 -2.000000
v 0.514323 4.000000 -2.000000
v 1.000000 3.514323 -2.000000
v 0.514323 0.000000 2.000000
v 1.000000 0.485677 2.000000
v 0.514323 4.000000 2.000000
v 1.000000 3.514323 2.000000
v 1.000000 1.000000 2.514323
v 0.514323 1.000000 3.000000
v 0.514323 1.000000 -3.000000
v 1.000000 1.000000 -2.514323
v 0.514323 3.000000 -3.000000
v 1.000000 3.000000 -2.514323
v 1.000000 3.000000 2.514323
v 0.514323 3.000000 3.000000
vn -0.0000 -0.0000 -1.0000
vn -1.0000 -0.0000 -0.0000
vn -0.0000 -1.0000 -0.0000
vn -0.0000 -0.0000 1.0000
vn -0.0000 1.0000 -0.0000
vn 1.0000 -0.0000 -0.0000
vn 0.7071 -0.0000 -0.7071
vn 0.7071 -0.7071 -0.0000
vn 0.7071 -0.0000 0.7071
vn 0.7071 0.7071 -0.0000
vt 0.726659 0.032102
vt 0.779583 0.031900
vt 0.779505 0.032841
vt 0.726914 0.032854
vt 0.809595 0.747941
vt 0.848971 0.751578
vt 0.847158 0.807581
vt 0.808116 0.810023
vt 0.640436 0.346937
vt 0.641628 0.346760
vt 0.672265 0.431853
vt 0.671328 0.432448
vt 0.759209 0.858326
vt 0.777878 0.847831
vt 0.799542 0.864435
vt 0.794200 0.874979
vt 0.829636 0.680802
vt 0.865697 0.685586
vt 0.861369 0.699126
vt 0.827317 0.694353
vt 0.818137 0.718831
vt 0.782170 0.708808
vt 0.801516 0.690119
vt 0.966116 0.194605
vt 0.967029 0.194602
vt 0.963308 0.325772
vt 0.962390 0.325714
vt 0.891307 0.865629
vt 0.886578 0.855124
vt 0.908338 0.848782
vt 0.916493 0.855608
vt 0.815949 0.838441
vt 0.850638 0.834464
vt 0.856317 0.859905
vt 0.824578 0.863789
vt 0.936022 0.809590
vt 0.918090 0.808281
vt 0.920646 0.755294
vt 0.938465 0.755003
vt 0.935701 0.728912
vt 0.919727 0.730666
vt 0.916389 0.711881
vt 0.927061 0.706920
vt 0.883017 0.806997
vt 0.885453 0.754115
vt 0.888448 0.728841
vt 0.893886 0.706002
vt 0.883078 0.831969
vt 0.913943 0.832490
vt 0.906396 0.059206
vt 0.906736 0.058356
vt 0.950561 0.083704
vt 0.949946 0.084181
vt 0.956239 0.388200
vt 0.957108 0.388405
vt 0.939151 0.434269
vt 0.938602 0.433749
vt 0.737654 0.820414
vt 0.762358 0.816079
vt 0.764692 0.741701
vt 0.835678 0.467049
vt 0.835529 0.466196
vt 0.893984 0.454373
vt 0.894216 0.455112
vt 0.854154 0.724650
vt 0.674226 0.073461
vt 0.673254 0.072740
vt 0.797787 0.681399
vt 0.775314 0.475073
vt 0.775371 0.475887
vt 0.859522 0.872027
vt 0.820020 0.161288
vt 0.823079 0.146520
vt 0.852836 0.155093
vt 0.847284 0.168070
vt 0.870385 0.671177
vt 0.909450 0.680942
vt 0.900760 0.693710
vt 0.766480 0.350085
vt 0.789871 0.350551
vt 0.790456 0.363884
vt 0.762833 0.361967
vt 0.825844 0.875730
vt 0.826729 0.888819
vt 0.790070 0.887290
vt 0.474274 0.139858
vt 0.446266 0.157561
vt 0.432606 0.122278
vt 0.459630 0.124101
vt 0.872009 0.284944
vt 0.886588 0.286105
vt 0.882537 0.315794
vt 0.869299 0.312317
vt 0.393273 0.440793
vt 0.416238 0.447468
vt 0.416173 0.447483
vt 0.393293 0.440823
vt 0.954790 0.811305
vt 0.947027 0.840240
vt 0.930042 0.835731
vt 0.941533 0.699315
vt 0.928087 0.864429
vt 0.870256 0.341229
vt 0.861452 0.332362
vt 0.873635 0.227616
vt 0.888001 0.227231
vt 0.876861 0.171564
vt 0.866438 0.179148
vt 0.863145 0.884742
vt 0.816229 0.346689
vt 0.818656 0.360162
vt 0.745242 0.174357
vt 0.741231 0.158292
vt 0.765054 0.144964
vt 0.768582 0.156596
vt 0.716379 0.812347
vt 0.714889 0.746256
vt 0.739756 0.737820
vt 0.761074 0.697611
vt 0.757491 0.680295
vt 0.793588 0.668857
vt 0.844164 0.043750
vt 0.844353 0.042838
vt 0.722192 0.474003
vt 0.721849 0.474819
vt 0.964624 0.132706
vt 0.963833 0.132821
vt 0.642973 0.161596
vt 0.644165 0.161822
vt 0.841812 0.341472
vt 0.846097 0.353774
vt 0.792598 0.142610
vt 0.791713 0.156508
vt 0.420295 0.419105
vt 0.387319 0.415824
vt 0.872584 0.200565
vt 0.885828 0.198168
vt 0.714257 0.221588
vt 0.732007 0.213191
vt 0.730899 0.294194
vt 0.715532 0.285947
vt 0.740091 0.348336
vt 0.744400 0.331566
vt 0.897589 0.877275
vt 0.830814 0.666974
vt 0.956988 0.754476
vt 0.953348 0.726240
vt 0.480039 0.491514
vt 0.472942 0.523342
vt 0.438585 0.508355
vt 0.458787 0.490671
vt 0.755621 0.876007
vt 0.376043 0.466377
vt 0.345935 0.463139
vt 0.467846 0.078564
vt 0.474089 0.100593
vt 0.432606 0.452885
vt 0.452481 0.464006
vt 0.345935 0.830066
vt 0.368432 0.840926
vt 0.377104 0.869658
vt 0.356212 0.890378
vt 0.497347 0.080236
vt 0.494869 0.105686
vt 0.031271 0.463408
vt 0.022598 0.434676
vt 0.022633 0.434681
vt 0.031293 0.463372
vt 0.368737 0.807171
vt 0.387665 0.827692
vt 0.459669 0.124091
vt 0.474263 0.139812
vt 0.400368 0.869161
vt 0.394829 0.904390
vt 0.391643 0.484621
vt 0.359682 0.503126
vt 0.030209 0.060127
vt 0.047439 0.034543
vt 0.047460 0.034573
vt 0.030253 0.060119
vt 0.454579 0.433300
vt 0.470735 0.453003
vt 0.519861 0.384317
vt 0.555020 0.403187
vt 0.492340 0.441093
vt 0.477375 0.419058
vt 0.479305 0.573799
vt 0.435307 0.593738
vt 0.382789 0.533647
vt 0.412111 0.508079
vt 0.517023 0.478764
vt 0.442347 0.456246
vt 0.585911 0.488698
vt 0.507429 0.492361
vt 0.576053 0.527069
vt 0.506617 0.526383
vt 0.510684 0.437836
vt 0.449429 0.427279
vt 0.587838 0.128990
vt 0.557557 0.217846
vt 0.493519 0.160199
vt 0.518637 0.112485
vt 0.513723 0.858620
vt 0.507374 0.900410
vt 0.431833 0.905270
vt 0.430223 0.868216
vt 0.437944 0.749948
vt 0.475585 0.769015
vt 0.410445 0.813329
vt 0.392855 0.790182
vt 0.578661 0.092234
vt 0.523616 0.086282
vt 0.516943 0.237059
vt 0.467939 0.184183
vt 0.568257 0.041233
vt 0.543716 0.078318
vt 0.545053 0.052852
vt 0.545054 0.052777
vt 0.479997 0.491489
vt 0.458808 0.490639
vt 0.464236 0.475322
vt 0.464252 0.475276
vt 0.368467 0.840931
vt 0.387637 0.827748
vt 0.382008 0.852441
vt 0.381994 0.852482
vt 0.452513 0.464011
vt 0.464188 0.475277
vt 0.580286 0.049436
vt 0.559691 0.083608
vt 0.559680 0.083562
vt 0.580227 0.049452
vt 0.070405 0.041218
vt 0.045810 0.078371
vt 0.045799 0.078318
vt 0.070340 0.041233
vt 0.376086 0.466369
vt 0.391632 0.484568
vt 0.377126 0.869622
vt 0.400320 0.869135
vt 0.545046 0.067851
vt 0.559506 0.044343
vt 0.559526 0.044369
vt 0.545085 0.067841
vt 0.556152 0.396753
vt 0.565455 0.435264
vt 0.565414 0.435239
vt 0.556123 0.396803
vt 0.544204 0.434421
vt 0.537897 0.407756
vt 0.537929 0.407761
vt 0.544225 0.434389
vt 0.041831 0.421442
vt 0.054535 0.462911
vt 0.054486 0.462885
vt 0.041804 0.421498
vt 0.470706 0.453053
vt 0.494810 0.105702
vt 0.474110 0.100619
vt 0.464207 0.475233
vt 0.474507 0.116879
vt 0.474509 0.116956
vt 0.474454 0.116982
vt 0.474452 0.116901
vt 0.549669 0.419026
vt 0.549624 0.418983
vt 0.382051 0.852478
vt 0.382039 0.852521
vt 0.392970 0.459027
vt 0.392969 0.459102
vt 0.392915 0.459124
vt 0.392917 0.459046
vt 0.539721 0.421498
vt 0.552403 0.462885
vt 0.534135 0.446228
vt 0.534092 0.446191
vt 0.842604 0.186255
vt 0.815884 0.181852
vt 0.819937 0.161686
vt 0.847136 0.168442
vt 0.731420 0.294117
vt 0.732528 0.213290
vt 0.759057 0.218608
vt 0.758452 0.289029
vt 0.789847 0.350196
vt 0.766630 0.349728
vt 0.772869 0.334529
vt 0.786144 0.331307
vt 0.767300 0.320770
vt 0.744809 0.331306
vt 0.787890 0.176191
vt 0.774601 0.172605
vt 0.768694 0.156925
vt 0.791678 0.156919
vt 0.768741 0.186350
vt 0.745667 0.174672
vt 0.873236 0.227618
vt 0.871608 0.284919
vt 0.851427 0.283841
vt 0.853204 0.227563
vt 0.851127 0.310473
vt 0.868920 0.312228
vt 0.853783 0.200942
vt 0.854473 0.188607
vt 0.866169 0.179357
vt 0.872239 0.200615
vt 0.841711 0.341149
vt 0.816164 0.346316
vt 0.813181 0.326805
vt 0.838654 0.323424
vt 0.850613 0.322258
vt 0.861212 0.332135
vt 0.235250 0.611404
vt 0.262407 0.616784
vt 0.260828 0.645008
vt 0.259503 0.705919
vt 0.255439 0.834688
vt 0.254752 0.895624
vt 0.253577 0.922590
vt 0.226212 0.925257
vt 0.167929 0.932994
vt 0.106066 0.943295
vt 0.075691 0.950665
vt 0.062950 0.919185
vt 0.042705 0.846559
vt 0.044088 0.685431
vt 0.066248 0.611621
vt 0.079655 0.580173
vt 0.110061 0.588377
vt 0.174112 0.601329
s 0
usemtl Board
f 60/1/1 56/2/1 183/3/1 162/4/1
f 19/5/2 3/6/2 1/7/2 20/8/2
f 49/9/3 156/10/3 177/11/3 64/12/3
f 81/13/3 13/14/3 7/15/3 69/16/3
f 74/17/4 68/18/4 6/19/4 21/20/4
f 24/21/2 16/22/2 5/23/2 21/20/2
f 168/24/5 52/25/5 61/26/5 165/27/5
f 84/28/1 25/29/1 12/30/1 80/31/1
f 23/32/2 14/33/2 8/34/2 22/35/2
f 79/36/5 10/37/5 9/38/5 70/39/5
f 82/40/5 18/41/5 11/42/5 71/43/5
f 27/44/2 26/45/2 9/38/2 10/37/2
f 30/46/2 28/47/2 11/42/2 18/41/2
f 29/48/2 27/44/2 10/37/2 15/49/2
f 185/50/1 57/51/1 53/52/1 172/53/1
f 25/29/2 29/48/2 15/49/2 12/30/2
f 179/54/5 55/55/5 62/56/5 169/57/5
f 20/8/2 1/7/2 14/33/2 23/32/2
f 67/58/3 2/59/3 13/14/3 81/13/3
f 26/45/2 30/46/2 18/41/2 9/38/2
f 70/39/5 9/38/5 18/41/5 82/40/5
f 19/5/2 4/60/2 16/22/2 24/21/2
f 59/61/4 157/62/4 188/63/4 66/64/4
f 3/6/2 19/5/2 24/21/2 17/65/2
f 2/59/2 20/8/2 23/32/2 13/14/2
f 13/14/2 23/32/2 22/35/2 7/15/2
f 173/66/3 54/67/3 60/1/3 162/4/3
f 17/65/2 24/21/2 21/20/2 6/19/2
f 77/68/4 74/17/4 21/20/4 5/23/4
f 4/60/2 19/5/2 20/8/2 2/59/2
f 3/6/2 17/65/2 30/46/2 26/45/2
f 8/34/2 14/33/2 29/48/2 25/29/2
f 182/69/4 157/62/4 59/61/4 65/70/4
f 14/33/2 1/7/2 27/44/2 29/48/2
f 17/65/2 6/19/2 28/47/2 30/46/2
f 1/7/2 3/6/2 26/45/2 27/44/2
f 78/71/1 8/34/1 25/29/1 84/28/1
f 51/72/1 36/73/1 48/74/1 57/75/1
f 68/18/4 33/76/4 47/77/4 75/78/4
f 50/79/4 65/80/4 46/81/4 34/82/4
f 69/16/1 83/83/1 45/84/1 35/85/1
f 119/86/4 116/87/4 86/88/4 85/89/4
f 61/90/5 37/91/5 43/92/5 55/93/5
f 96/94/5 104/95/5 129/96/5 126/97/5
f 79/36/5 38/98/5 41/99/5 72/100/5
f 75/78/4 47/77/4 39/101/4 71/43/4
f 72/100/5 41/99/5 40/102/5 80/31/5
f 55/93/5 43/92/5 39/103/5 62/104/5
f 52/105/5 38/106/5 37/91/5 61/90/5
f 57/75/1 48/74/1 40/107/1 53/108/1
f 83/83/1 78/71/1 36/109/1 45/84/1
f 65/80/4 59/110/4 33/111/4 46/81/4
f 54/112/3 42/113/3 35/114/3 60/115/3
f 67/58/3 31/116/3 32/117/3 76/118/3
f 73/119/3 44/120/3 34/121/3 77/68/3
f 164/122/1 51/123/1 57/51/1 185/50/1
f 160/124/4 182/69/4 65/70/4 50/125/4
f 63/126/5 175/127/5 172/53/5 53/52/5
f 165/27/5 61/26/5 55/55/5 179/54/5
f 66/64/4 188/63/4 169/57/4 62/56/4
f 58/128/3 153/129/3 156/10/3 49/9/3
f 52/25/5 168/24/5 175/127/5 63/126/5
f 64/12/3 177/11/3 160/124/3 50/125/3
f 56/2/1 51/123/1 164/122/1 183/3/1
f 33/111/4 59/110/4 66/130/4 47/131/4
f 35/114/1 45/132/1 56/133/1 60/115/1
f 103/134/4 104/95/4 96/94/4 92/135/4
f 38/106/5 52/105/5 63/136/5 41/137/5
f 47/131/4 66/130/4 62/104/4 39/103/4
f 41/137/5 63/136/5 53/108/5 40/107/5
f 45/132/1 36/73/1 51/72/1 56/133/1
f 31/138/3 58/139/3 49/140/3 32/141/3
f 44/142/3 64/143/3 50/79/3 34/82/3
f 16/22/3 73/119/3 77/68/3 5/23/3
f 2/59/3 67/58/3 76/118/3 4/60/3
f 22/35/1 8/34/1 78/71/1 83/83/1
f 15/49/5 72/100/5 80/31/5 12/30/5
f 28/47/4 75/78/4 71/43/4 11/42/4
f 10/37/5 79/36/5 72/100/5 15/49/5
f 4/60/3 76/118/3 73/119/3 16/22/3
f 7/15/1 22/35/1 83/83/1 69/16/1
f 6/19/4 68/18/4 75/78/4 28/47/4
f 36/109/1 78/71/1 84/28/1 48/144/1
f 34/121/4 46/145/4 74/17/4 77/68/4
f 37/146/5 70/39/5 82/40/5 43/147/5
f 107/148/4 103/149/4 92/150/4 91/151/4
f 43/147/5 82/40/5 71/43/5 39/101/5
f 38/98/5 79/36/5 70/39/5 37/146/5
f 48/144/1 84/28/1 80/31/1 40/102/1
f 46/145/4 33/76/4 68/18/4 74/17/4
f 42/152/3 81/13/3 69/16/3 35/85/3
f 87/153/3 88/154/3 92/135/3 96/94/3
f 85/89/3 86/88/3 90/155/3 94/156/3
f 88/157/3 93/158/3 91/151/3 92/150/3
f 86/159/3 95/160/3 89/161/3 90/162/3
f 120/163/1 117/164/1 94/156/1 90/155/1
f 89/165/5 95/166/5 127/167/5 128/168/5
f 116/169/4 118/170/4 95/160/4 86/159/4
f 119/86/5 85/89/5 121/171/5 136/172/5
f 115/173/1 120/174/1 90/162/1 89/161/1
f 105/175/1 106/176/1 88/154/1 87/153/1
f 87/177/5 96/178/5 126/179/5 125/180/5
f 106/181/1 108/182/1 93/158/1 88/157/1
f 32/183/1 49/184/1 100/185/1 102/186/1
f 76/187/1 32/188/1 102/189/1 101/190/1
f 73/191/2 76/187/2 101/190/2 99/192/2
f 49/184/6 64/193/6 97/194/6 100/185/6
f 64/193/4 44/195/4 98/196/4 97/194/4
f 44/197/4 73/191/4 99/192/4 98/198/4
f 102/186/1 100/185/1 108/182/1 106/181/1
f 101/190/1 102/189/1 106/176/1 105/175/1
f 99/192/2 101/190/2 105/175/2 104/95/2
f 100/185/6 97/194/6 107/148/6 108/182/6
f 97/194/4 98/196/4 103/149/4 107/148/4
f 98/198/4 99/192/4 104/95/4 103/134/4
f 54/199/6 58/200/6 112/201/6 113/202/6
f 81/203/1 42/204/1 114/205/1 109/206/1
f 31/207/4 67/208/4 110/209/4 111/210/4
f 42/211/1 54/199/1 113/202/1 114/212/1
f 67/208/2 81/203/2 109/206/2 110/209/2
f 58/200/4 31/213/4 111/214/4 112/201/4
f 113/202/6 112/201/6 119/86/6 117/164/6
f 109/206/1 114/205/1 120/174/1 115/173/1
f 111/210/4 110/209/4 118/170/4 116/169/4
f 114/212/1 113/202/1 117/164/1 120/163/1
f 110/209/2 109/206/2 115/173/2 118/170/2
f 112/201/4 111/214/4 116/87/4 119/86/4
f 129/215/5 132/216/5 151/217/5 149/218/5
f 133/219/4 124/220/4 140/221/4 142/222/4
f 127/223/4 135/224/4 152/225/4 147/226/4
f 124/220/3 123/227/3 139/228/3 140/221/3
f 117/229/5 119/230/5 136/231/5 131/232/5
f 104/233/5 105/234/5 132/235/5 129/236/5
f 105/175/5 87/153/5 125/237/5 132/238/5
f 115/173/5 89/161/5 128/239/5 130/240/5
f 85/241/5 94/242/5 122/243/5 121/244/5
f 108/245/5 107/246/5 133/247/5 134/248/5
f 91/249/5 93/250/5 123/251/5 124/252/5
f 107/148/5 91/151/5 124/220/5 133/219/5
f 118/253/5 115/254/5 130/255/5 135/256/5
f 95/160/5 118/170/5 135/224/5 127/223/5
f 93/158/5 108/182/5 134/257/5 123/227/5
f 94/156/5 117/164/5 131/258/5 122/259/5
f 143/260/6 142/222/6 140/221/6 139/228/6
f 141/261/6 144/262/6 137/263/6 138/264/6
f 122/259/1 131/258/1 141/261/1 138/264/1
f 136/172/4 121/171/4 137/263/4 144/262/4
f 134/248/5 133/247/5 142/265/5 143/266/5
f 121/171/3 122/259/3 138/264/3 137/263/3
f 123/227/1 134/257/1 143/260/1 139/228/1
f 131/258/5 136/172/5 144/262/5 141/261/5
f 152/225/2 150/267/2 148/268/2 147/226/2
f 149/269/2 151/270/2 145/271/2 146/272/2
f 135/273/5 130/274/5 150/275/5 152/276/5
f 126/97/4 129/96/4 149/269/4 146/272/4
f 125/237/3 126/97/3 146/272/3 145/271/3
f 132/238/1 125/237/1 145/271/1 151/270/1
f 130/240/1 128/239/1 148/268/1 150/267/1
f 128/239/3 127/223/3 147/226/3 148/268/3
f 153/129/3 58/128/3 54/67/3 173/66/3
f 186/277/7 163/278/7 164/279/7 185/280/7
f 156/281/8 153/282/8 154/283/8 155/284/8
f 182/285/9 160/286/9 159/287/9 181/288/9
f 178/289/8 159/287/8 160/286/8 177/290/8
f 184/291/7 161/292/7 162/293/7 183/294/7
f 174/295/8 154/283/8 153/282/8 173/296/8
f 168/297/10 165/298/10 166/299/10 167/300/10
f 180/301/10 166/299/10 165/298/10 179/302/10
f 176/303/10 171/304/10 172/305/10 175/306/10
f 188/307/9 157/308/9 158/309/9 187/310/9
f 161/292/8 174/295/8 173/296/8 162/293/8
f 167/300/10 176/303/10 175/306/10 168/297/10
f 155/284/8 178/289/8 177/290/8 156/281/8
f 170/311/10 180/301/10 179/302/10 169/312/10
f 157/308/9 182/285/9 181/288/9 158/309/9
f 163/278/7 184/291/7 183/294/7 164/279/7
f 171/304/7 186/277/7 185/280/7 172/305/7
f 169/312/9 188/307/9 187/310/9 170/311/9
f 186/313/6 171/314/6 176/315/6 167/316/6 166/317/6 180/318/6 170/319/6 187/320/6 158/321/6 181/322/6 159/323/6 178/324/6 155/325/6 154/326/6 174/327/6 161/328/6 184/329/6 163/330/6
